<svg width="3476" height="720" viewBox="0 0 3476 720" fill="none" xmlns="http://www.w3.org/2000/svg">
<path fill-rule="evenodd" clip-rule="evenodd" d="M1067.84 232H864V304H974.88C972.892 311.743 971.884 319.706 971.88 327.7L971.31 510.26V551.37H1043.31V510.44L1043.88 327.93C1043.9 321.577 1046.44 315.49 1050.93 311.005C1055.43 306.519 1061.53 304 1067.88 304H1152V232H1067.84ZM1200.27 455V328C1200.3 302.548 1210.42 278.147 1228.42 260.15C1246.42 242.153 1270.82 232.029 1296.27 232H1488.27V304H1296.27C1289.9 304 1283.8 306.529 1279.3 311.029C1274.8 315.53 1272.27 321.635 1272.27 328V356H1488.27V428H1272.27V455C1272.27 461.365 1274.8 467.47 1279.3 471.971C1283.8 476.471 1289.9 479 1296.27 479H1488.27V551H1296.27C1270.82 550.971 1246.42 540.847 1228.42 522.85C1210.42 504.853 1200.3 480.452 1200.27 455ZM1608.27 232V455C1608.27 461.365 1610.8 467.47 1615.3 471.971C1619.8 476.471 1625.9 479 1632.27 479H1776.27V551H1632.27C1606.82 550.971 1582.42 540.847 1564.42 522.85C1546.42 504.853 1536.3 480.452 1536.27 455V232H1608.27ZM1896.27 328C1896.27 321.635 1898.8 315.53 1903.3 311.029C1907.8 306.529 1913.9 304 1920.27 304H2112.27V232H1920.27C1894.82 232.029 1870.42 242.153 1852.42 260.15C1834.42 278.147 1824.3 302.548 1824.27 328V455C1824.3 480.452 1834.42 504.853 1852.42 522.85C1870.42 540.847 1894.82 550.971 1920.27 551H2112.27V479H1920.27C1913.9 479 1907.8 476.471 1903.3 471.971C1898.8 467.47 1896.27 461.365 1896.27 455V428L2112.19 428.47L2112.35 356.47L1896.27 356V328ZM2160.27 232H2325C2393 232 2448.31 283.81 2448.31 347.5C2448.31 411.19 2393 463 2325 463H2256.27C2249.9 463 2243.8 465.529 2239.3 470.029C2234.8 474.53 2232.27 480.635 2232.27 487V552H2160.27V232ZM2256.31 391H2325C2353.25 391 2376.31 371.49 2376.31 347.5C2376.31 323.51 2353.29 304 2325 304H2232.31V394C2240.15 391.987 2248.22 390.979 2256.31 391ZM3140.91 345.62C3140.91 283 3089.1 232 3025.41 232H2852.27V552H2924.27V304H3025.41C3049.41 304 3068.91 322.67 3068.91 345.62C3068.91 368.57 3049.46 387.18 3025.53 387.24L2934.94 386.53L2972.07 458.48C2986.61 486.653 3008.63 510.281 3035.71 526.776C3062.78 543.271 3093.87 551.998 3125.58 552H3140.11V480H3125.58C3100.84 480.051 3076.95 470.967 3058.5 454.49C3106.11 440.46 3140.91 397 3140.91 345.62ZM3188 232H3410.27H3476V304H3391.88C3385.53 304 3379.43 306.519 3374.93 311.005C3370.44 315.49 3367.9 321.577 3367.88 327.93L3367.31 510.44V551.37H3295.31V510.26L3295.88 327.7C3295.88 319.706 3296.89 311.743 3298.88 304H3188V232ZM2645.74 232H2654.8C2737.22 232 2804.27 298.62 2804.27 380.5V402.5C2804.27 484.38 2737.22 551 2654.8 551H2645.74C2563.27 551 2496.27 484.38 2496.27 402.5V380.5C2496.27 298.62 2563.32 232 2645.74 232ZM2654.8 479C2697.26 479 2731.8 444.68 2731.8 402.5V380.5C2731.8 338.32 2697.26 304 2654.8 304H2645.74C2603.28 304 2568.74 338.32 2568.74 380.5V402.5C2568.74 444.68 2603.28 479 2645.74 479H2654.8Z" fill="#111621"/>
<path fill-rule="evenodd" clip-rule="evenodd" d="M669.476 290.087C636.282 270.922 579.548 303.027 525.62 365.653C547.417 348.7 567.662 342.156 581.293 350.026C608.841 365.931 598.941 434.658 559.176 503.533C519.411 572.408 464.841 615.346 437.293 599.441C423.662 591.571 419.207 570.766 422.99 543.413C395.718 621.43 396.282 686.614 429.476 705.779C475.393 732.289 566.34 660.725 632.615 545.933C698.89 431.142 715.393 316.597 669.476 290.087Z" fill="url(#paint0_linear_111_698)"/>
<path fill-rule="evenodd" clip-rule="evenodd" d="M167.937 554.779C122.02 528.269 138.524 413.725 204.799 298.933C271.074 184.141 362.02 112.577 407.937 139.087C430.757 152.262 438.154 187.19 431.686 233.073C463.292 128.969 458.386 43.5062 411.708 16.5562C342.833 -23.2088 209.1 79.483 113 245.933C16.9 412.383 -5.16737 579.545 63.7076 619.31C110.386 646.26 186.852 607.777 261.206 528.353C224.704 556.896 190.757 567.954 167.937 554.779Z" fill="url(#paint1_linear_111_698)"/>
<path d="M494.731 424.756L370.023 352.756C324.107 326.246 308.375 267.534 334.885 221.618L459.592 293.618C505.509 320.128 521.241 378.839 494.731 424.756Z" fill="#00C6D2"/>
<path d="M327.592 522.248L202.885 450.248C229.395 404.332 288.107 388.6 334.023 415.11L458.731 487.11C432.221 533.027 373.509 548.758 327.592 522.248Z" fill="#00C6D2"/>
<defs>
<linearGradient id="paint0_linear_111_698" x1="428.5" y1="708.056" x2="652.355" y2="303.976" gradientUnits="userSpaceOnUse">
<stop stop-color="#009EFD"/>
<stop offset="1" stop-color="#12EFCF"/>
</linearGradient>
<linearGradient id="paint1_linear_111_698" x1="457" y1="27.5562" x2="107.5" y2="648.056" gradientUnits="userSpaceOnUse">
<stop stop-color="#009EFD"/>
<stop offset="1" stop-color="#12EFCF"/>
</linearGradient>
</defs>
</svg>
